<?xml version="1.0" standalone="no"?>
<!DOCTYPE svg PUBLIC "-//W3C//DTD SVG 20010904//EN"
 "http://www.w3.org/TR/2001/REC-SVG-20010904/DTD/svg10.dtd">
<svg version="1.0" xmlns="http://www.w3.org/2000/svg"
 width="400.000000pt" height="93.000000pt" viewBox="0 0 2000.000000 913.000000"
 preserveAspectRatio="xMidYMid meet">
<metadata>
Created by potrace 1.13, written by Peter Selinger 2001-2015
</metadata>
<g transform="translate(0.000000,913.000000) scale(0.100000,-0.100000)"
fill="#000000" stroke="none">
<path d="M4610 7743 c-14 -3 -195 -102 -404 -221 -279 -160 -385 -226 -405
-251 l-26 -34 -3 -264 c-2 -146 -6 -263 -11 -261 -4 2 -334 168 -733 371 -657
332 -730 367 -774 367 -45 0 -78 -16 -429 -217 -209 -119 -392 -229 -406 -245
-15 -15 -32 -48 -38 -72 -16 -63 -16 -4163 0 -4237 8 -37 21 -60 48 -86 25
-25 297 -168 896 -471 1021 -518 905 -480 1105 -365 l125 71 80 -43 c44 -23
244 -125 445 -226 326 -163 370 -183 413 -182 43 1 82 21 425 216 207 119 387
226 399 239 55 58 53 27 53 953 0 470 2 855 4 855 3 0 56 -25 118 -56 99 -48
119 -55 159 -51 38 3 115 43 429 223 329 188 387 224 409 258 l26 40 3 1340
c3 1457 5 1392 -51 1444 -34 32 -1758 900 -1797 905 -19 3 -46 3 -60 0z m698
-713 c353 -179 642 -328 642 -331 0 -7 -304 -179 -318 -179 -9 0 -1288 644
-1300 655 -5 5 313 184 323 182 6 -1 300 -148 653 -327z m-2363 -310 c330
-166 604 -306 608 -310 5 -4 -63 -49 -152 -99 l-160 -92 -643 326 c-354 180
-646 330 -650 333 -4 4 65 48 154 99 l162 92 40 -23 c23 -13 311 -160 641
-326z m2513 -1614 c1 -603 0 -1096 -3 -1096 -3 0 -24 9 -45 20 l-40 20 0 108
c0 116 -15 167 -61 208 -13 12 -284 153 -601 314 l-578 292 0 949 0 950 663
-335 662 -335 3 -1095z m-3048 1131 l655 -332 3 -1872 c1 -1263 -1 -1873 -8
-1873 -6 0 -305 150 -665 332 l-655 333 0 1872 c0 1030 3 1873 8 1873 4 -1
302 -150 662 -333z m3750 -929 l-1 -1093 -163 -92 c-90 -51 -167 -93 -170 -93
-3 0 -6 489 -6 1088 l0 1087 168 97 c92 53 168 97 170 97 1 1 2 -491 2 -1091z
m-2390 -1075 l0 -1868 -170 -97 -170 -97 2 1872 3 1871 160 92 c88 51 163 93
168 93 4 1 7 -839 7 -1866z m1022 -9 c1 -5 -68 -49 -153 -97 l-154 -89 -177
88 -178 89 0 175 0 176 331 -166 c182 -92 331 -171 331 -176z m218 -1233 l0
-929 -147 -85 c-82 -46 -158 -89 -171 -96 l-22 -12 2 932 3 932 160 92 c88 51
163 94 168 94 4 1 7 -417 7 -928z m-700 -207 c0 -515 -3 -934 -7 -932 -88 40
-363 185 -363 190 0 3 29 23 65 43 44 24 75 50 93 77 l27 42 3 803 2 803 90
-45 90 -45 0 -936z"/>
<path d="M12800 4675 l0 -1145 125 0 125 0 0 1145 0 1145 -125 0 -125 0 0
-1145z"/>
<path d="M7887 5175 c-164 -31 -298 -106 -418 -232 -135 -142 -206 -320 -216
-548 -16 -360 148 -660 442 -808 234 -117 594 -106 811 24 113 68 234 208 290
337 l24 52 -134 0 -134 0 -25 -43 c-14 -23 -50 -65 -79 -94 -100 -94 -209
-133 -374 -133 -152 0 -258 36 -366 124 -98 80 -189 245 -200 361 l-3 30 684
3 684 2 -6 133 c-7 162 -30 259 -93 387 -40 82 -60 108 -143 190 -109 109
-206 166 -338 201 -104 27 -299 34 -406 14z m354 -235 c182 -56 332 -228 364
-417 l7 -43 -552 0 -552 0 7 43 c31 180 178 357 346 412 118 39 264 41 380 5z"/>
<path d="M9830 5184 c-123 -24 -234 -87 -340 -194 l-70 -69 0 119 0 120 -125
0 -125 0 0 -815 0 -815 125 0 125 0 0 513 c0 562 2 580 60 682 33 58 128 153
179 180 145 75 313 82 448 20 114 -52 189 -137 235 -265 23 -64 23 -70 26
-598 l3 -533 122 3 122 3 0 515 c0 562 -4 607 -62 744 -76 181 -237 324 -418
371 -60 16 -258 28 -305 19z"/>
<path d="M11583 5181 c-212 -34 -398 -154 -517 -334 -61 -93 -86 -148 -118
-262 -32 -114 -31 -362 1 -480 65 -240 217 -428 426 -525 137 -64 282 -86 448
-69 203 21 345 87 483 224 78 77 98 105 138 186 25 52 46 100 46 107 0 9 -35
12 -130 12 l-130 0 -26 -52 c-53 -105 -170 -203 -285 -239 -128 -40 -328 -18
-454 49 -70 37 -183 154 -223 229 -69 131 -93 341 -56 492 51 209 223 384 424
432 126 30 310 10 400 -44 90 -53 180 -152 210 -232 l10 -25 131 0 131 0 -7
28 c-13 55 -77 171 -129 234 -96 116 -252 213 -406 252 -75 19 -290 29 -367
17z"/>
<path d="M14033 5181 c-160 -26 -288 -88 -401 -195 -186 -176 -272 -402 -259
-686 9 -182 47 -310 134 -444 150 -233 366 -348 653 -348 229 0 404 71 528
215 23 26 45 47 49 47 4 0 6 -45 4 -100 -4 -148 -12 -140 130 -140 l119 0 0
815 0 815 -119 0 c-142 0 -134 8 -131 -138 1 -54 2 -101 1 -106 0 -5 -19 14
-41 42 -74 93 -201 174 -327 208 -68 18 -265 27 -340 15z m341 -241 c94 -32
154 -70 218 -139 224 -239 221 -685 -6 -916 -103 -105 -229 -155 -393 -156
-167 0 -291 49 -403 161 -117 117 -171 259 -172 448 -1 134 14 205 62 309 78
167 225 280 408 313 70 13 221 3 286 -20z"/>
<path d="M17580 5180 c-88 -14 -210 -56 -280 -97 -88 -52 -217 -181 -268 -269
-149 -257 -160 -601 -28 -869 153 -310 466 -472 839 -434 228 23 397 115 526
286 42 56 111 179 111 198 0 3 -60 5 -133 5 l-132 0 -20 -37 c-27 -51 -110
-134 -167 -167 -122 -71 -331 -89 -476 -40 -98 32 -154 68 -229 147 -83 86
-153 232 -153 319 l0 28 680 0 680 0 5 23 c10 38 -14 259 -36 339 -76 274
-281 479 -548 550 -86 22 -284 32 -371 18z m310 -236 c86 -26 149 -62 212
-122 87 -82 141 -182 172 -314 l6 -28 -555 0 -556 0 7 38 c31 174 161 340 320
407 107 46 277 54 394 19z"/>
<path d="M15236 5120 c9 -21 152 -387 319 -812 l303 -773 144 -3 144 -3 57
143 c85 216 577 1481 577 1485 0 1 -60 3 -133 3 l-133 0 -22 -62 c-120 -334
-487 -1297 -492 -1291 -4 5 -114 294 -245 643 -131 349 -244 652 -253 673
l-14 37 -134 0 -134 0 16 -40z"/>
</g>
</svg>
